<?xml version="1.0" ?><svg xmlns="http://www.w3.org/2000/svg" width="23.927584mm" height="80.91198mm" viewBox="0 0 23.927584 80.91198">
    <path d="m -3395.1233,-869.95962 4.1759,52.76319 10.0816,1.94665 4.5894,-54.50675 z m 10.5507,62.64734 c -2.8019,0.0328 -5.7717,3.69032 -5.6792,6.8063 0,0 2.6522,4.19798 6.0002,4.58732 3.348,0.38934 6.1133,-4.07945 6.2073,-6.60166 0.094,-2.52221 -3.5553,-4.70581 -6.3954,-4.79041 -0.044,-10e-4 -0.088,-0.002 -0.1329,-0.002 z" fill="#FFFFFF" fill-opacity=".988235" paint-order="markers stroke fill" transform="translate(-259.86668,283.34158) translate(3658.2401,590.12017)"/>
    <path d="m -3397.1453,-872.17685 c 2.3974,-1.4814 19.5197,-1.7821 21.2182,-0.3721 1.8806,1.5606 1.9141,14.59538 0.4202,31.10588 -1.8702,20.6702 -2.2997,24.0547 -3.2888,25.9115 -1.4772,2.7739 -9.0348,2.4575 -12.6339,-0.5285 -2.5165,-2.088 -2.9595,-3.4609 -3.9674,-12.2963 -3.5132,-30.8008 -3.6716,-42.63158 -1.7483,-43.82048 z m 6.4502,30.78778 c 1.4371,8.0318 2.6149,16.5903 2.6174,19.0187 0,4.1097 0.1641,4.3566 2.3084,3.5636 2.0461,-0.757 2.4999,-2.2476 4.0531,-13.3148 2.6636,-18.9799 3.835,-35.22768 3.3037,-35.75888 -0.2644,-0.2642 -3.7004,-0.4811 -7.6351,-0.4811 -7.1384,0 -7.154,0 -7.154,2.9332 0,1.6133 1.0695,16.00758 2.5065,24.03928 z m 12.3511,34.27407 c 6.13,4.3649 2.7331,14.56523 -4.8811,14.56523 -7.4985,0 -12.7618,-7.93386 -7.7445,-13.904 2.6726,-3.18021 8.4809,-3.61403 12.6256,-0.66123 z m -8.209,8.03093 c 0.8361,0.6939 2.3673,1.0987 3.4026,0.8993 2.4896,-0.4796 2.482,-4.9727 -0.011,-6.5014 -1.5161,-0.9298 -2.1942,-0.7561 -3.4026,0.871 -1.8867,2.541 -1.8853,3.1574 0.011,4.7311 z" transform="translate(-259.86668,283.34158) translate(3658.2401,590.12017)" fill="#9bafff"/>
</svg>